<svg xmlns="http://www.w3.org/2000/svg" viewBox="0 0 640 480" role="img" aria-label="Workflow automation illustration">
  <defs>
    <linearGradient id="bg" x1="0" y1="0" x2="1" y2="1">
      <stop offset="0" stop-color="#f8fafc"/>
      <stop offset="1" stop-color="#ecfeff"/>
    </linearGradient>
    <linearGradient id="accent" x1="0" y1="0" x2="1" y2="1">
      <stop offset="0" stop-color="#1f2937"/>
      <stop offset="1" stop-color="#0f766e"/>
    </linearGradient>
  </defs>
  <rect width="640" height="480" rx="28" fill="url(#bg)"/>
  <circle cx="104" cy="94" r="58" fill="#f59e0b" opacity=".14"/>
  <circle cx="540" cy="74" r="82" fill="#0f766e" opacity=".12"/>
  <rect x="72" y="82" width="176" height="70" rx="18" fill="#fff" stroke="#e5e7eb"/>
  <rect x="272" y="82" width="176" height="70" rx="18" fill="#fff" stroke="#e5e7eb"/>
  <rect x="472" y="82" width="96" height="70" rx="18" fill="#fff" stroke="#e5e7eb"/>
  <path d="M248 117h24" stroke="#0f766e" stroke-width="4" stroke-linecap="round"/>
  <path d="M448 117h24" stroke="#0f766e" stroke-width="4" stroke-linecap="round"/>
  <rect x="160" y="220" width="320" height="140" rx="24" fill="#fff" stroke="#e5e7eb"/>
  <rect x="190" y="250" width="108" height="18" rx="9" fill="#1f2937" opacity=".18"/>
  <rect x="190" y="284" width="240" height="14" rx="7" fill="#1f2937" opacity=".1"/>
  <rect x="190" y="310" width="190" height="14" rx="7" fill="#1f2937" opacity=".1"/>
  <rect x="190" y="338" width="138" height="14" rx="7" fill="#1f2937" opacity=".1"/>
  <circle cx="456" cy="292" r="34" fill="url(#accent)"/>
  <path d="M445 292l9 9 17-20" fill="none" stroke="#fff" stroke-width="6" stroke-linecap="round" stroke-linejoin="round"/>
  <path d="M100 152C138 186 166 206 204 222" fill="none" stroke="#0f766e" stroke-width="6" stroke-linecap="round"/>
  <path d="M348 152C384 182 414 200 460 218" fill="none" stroke="#0f766e" stroke-width="6" stroke-linecap="round"/>
</svg>
